# xmcd
#
# Track frame offsets:
#	150
#	15069
#	27840
#	41689
#	53946
#	66889
#	79922
#	91842
#	105604
#	121952
#
# Disc length: 1789 seconds
#
# Revision: 1
# Processed by: cddbd v1.5.2PL0 Copyright (c) Steve Scherf et al.
# Submitted via: audiograbber 1.83.01
#
DISCID=7206fb0a
DTITLE=Larry Patton - Rear View Mirror
DYEAR=2013
DGENRE=Country
TTITLE0=Are You Sure Hank Done It This Way
TTITLE1=Pass Me By
TTITLE2=You Don't Have Very Far To Go
TTITLE3=You'r Still On My Mind
TTITLE4=The Bottle Let Me Down
TTITLE5=I'm So Afraid Of Losing You Again
TTITLE6=All My Friends Are Gonna Be Strangers
TTITLE7=He Stopped Loving Her Today
TTITLE8=Storms Never Last
TTITLE9=Waltz Across Texas
EXTD=
EXTT0=
EXTT1=
EXTT2=
EXTT3=
EXTT4=
EXTT5=
EXTT6=
EXTT7=
EXTT8=
EXTT9=
PLAYORDER=
